<svg width="137" height="32" viewBox="0 0 137 32" fill="none" xmlns="http://www.w3.org/2000/svg">
<g clip-path="url(#clip0_3_3)">
<path d="M73.5873 7.81384C75.1968 7.81384 76.7702 8.29422 78.1084 9.19423C79.4467 10.0942 80.4897 11.3735 81.1057 12.8701C81.7216 14.3668 81.8828 16.0137 81.5688 17.6025C81.2548 19.1914 80.4797 20.6508 79.3416 21.7963C78.2035 22.9418 76.7535 23.7219 75.1749 24.038C73.5964 24.354 71.9601 24.1918 70.4731 23.5719C68.9861 22.9519 67.7152 21.9021 66.821 20.5551C65.9268 19.2082 65.4495 17.6246 65.4495 16.0046C65.4519 13.833 66.3101 11.7511 67.8357 10.2155C69.3613 8.68001 71.4298 7.81628 73.5873 7.81384ZM73.5873 -4.6975e-06C71.4996 -5.04453e-06 69.4323 0.414033 67.5036 1.21845C65.5749 2.02287 63.8226 3.20191 62.3467 4.68819C60.8709 6.17447 59.7005 7.93888 58.9024 9.88059C58.1043 11.8223 57.6941 13.9033 57.6953 16.0046C57.6953 20.2468 59.3696 24.3153 62.35 27.315C65.3303 30.3148 69.3725 32 73.5873 32C75.6763 32.0024 77.7452 31.5905 79.6759 30.7879C81.6067 29.9852 83.3613 28.8075 84.8397 27.3221C86.3181 25.8367 87.4912 24.0726 88.292 22.1307C89.0927 20.1888 89.5055 18.1071 89.5067 16.0046C89.5067 13.9013 89.0948 11.8186 88.2946 9.87565C87.4943 7.93268 86.3214 6.16753 84.8429 4.68113C83.3644 3.19472 81.6094 2.01622 79.678 1.21299C77.7467 0.409767 75.677 -0.0024209 73.5873 -4.6975e-06Z" fill="white"/>
<path d="M137 0.689453H129.246V31.3105H137V0.689453Z" fill="white"/>
<path d="M26.1396 0.689453H16.988L7.7542 12.7687V0.689453H0V31.3105H7.7542V24.7377L11.1427 20.316L17.6639 31.3105H26.9342L16.3578 13.4858L26.1396 0.689453Z" fill="white"/>
</g>
<defs>
<clipPath id="clip0_3_3">
<rect width="137" height="32" fill="white"/>
</clipPath>
</defs>
</svg>
