<svg width="20" height="4" viewBox="0 0 20 4" fill="none" xmlns="http://www.w3.org/2000/svg">
<path d="M1.83078 3.68973C1.30502 3.68973 0.863755 3.51135 0.506986 3.15458C0.168995 2.77904 0 2.33777 0 1.83078C0 1.30502 0.168995 0.873143 0.506986 0.535152C0.863755 0.178384 1.30502 0 1.83078 0C2.35655 0 2.78843 0.178384 3.12642 0.535152C3.48318 0.873143 3.66157 1.30502 3.66157 1.83078C3.66157 2.33777 3.48318 2.77904 3.12642 3.15458C2.78843 3.51135 2.35655 3.68973 1.83078 3.68973Z" fill="black"/>
<path d="M10 3.68973C9.47424 3.68973 9.03297 3.51135 8.6762 3.15458C8.33821 2.77904 8.16922 2.33777 8.16922 1.83078C8.16922 1.30502 8.33821 0.873143 8.6762 0.535152C9.03297 0.178384 9.47424 0 10 0C10.5258 0 10.9576 0.178384 11.2956 0.535152C11.6524 0.873143 11.8308 1.30502 11.8308 1.83078C11.8308 2.33777 11.6524 2.77904 11.2956 3.15458C10.9576 3.51135 10.5258 3.68973 10 3.68973Z" fill="black"/>
<path d="M18.1692 3.68973C17.6435 3.68973 17.2022 3.51135 16.8454 3.15458C16.5074 2.77904 16.3384 2.33777 16.3384 1.83078C16.3384 1.30502 16.5074 0.873143 16.8454 0.535152C17.2022 0.178384 17.6435 0 18.1692 0C18.695 0 19.1269 0.178384 19.4648 0.535152C19.8216 0.873143 20 1.30502 20 1.83078C20 2.33777 19.8216 2.77904 19.4648 3.15458C19.1269 3.51135 18.695 3.68973 18.1692 3.68973Z" fill="black"/>
</svg>
