<svg width="21" height="20" viewBox="0 0 21 20" fill="none" xmlns="http://www.w3.org/2000/svg">
<path d="M10.0277 0.358694C10.1834 -0.0890859 10.8166 -0.0890862 10.9723 0.358694L13.0896 6.44988C13.1582 6.64741 13.3426 6.78135 13.5517 6.78561L19.999 6.917C20.473 6.92666 20.6687 7.52893 20.2909 7.81533L15.1521 11.7113C14.9855 11.8376 14.9151 12.0543 14.9756 12.2545L16.843 18.4269C16.9803 18.8806 16.4679 19.2529 16.0788 18.9821L10.7856 15.2987C10.6139 15.1793 10.3861 15.1793 10.2144 15.2987L4.92117 18.9821C4.53205 19.2529 4.01973 18.8806 4.15701 18.4269L6.02439 12.2545C6.08495 12.0543 6.01453 11.8376 5.84788 11.7113L0.709101 7.81533C0.331335 7.52893 0.527025 6.92666 1.00099 6.917L7.44833 6.78561C7.65742 6.78135 7.84176 6.64741 7.91042 6.44988L10.0277 0.358694Z" fill="#D0D0D0"/>
</svg>
