<svg width="18" height="18" viewBox="0 0 18 18" fill="none" xmlns="http://www.w3.org/2000/svg">
<path d="M2.25 2.25C2.05109 2.25 1.86032 2.32902 1.71967 2.46967C1.57902 2.61032 1.5 2.80109 1.5 3V9C1.5 9.19891 1.57902 9.38968 1.71967 9.53033C1.86032 9.67098 2.05109 9.75 2.25 9.75H4.5V2.25H2.25Z" fill="#939393"/>
<path d="M14.9617 10.5H10.6335V14.25C10.6335 15.75 8.3265 15.75 8.3265 15.75C8.3265 15.75 8.3265 12.75 7.557 12C7.14 11.5928 6.50175 10.239 6 9.75V2.25H13.983C14.3392 2.24659 14.6854 2.36783 14.9616 2.59272C15.2379 2.81761 15.4268 3.13201 15.4957 3.4815L16.4707 8.7315C16.5085 8.95018 16.4977 9.17449 16.439 9.38851C16.3803 9.60253 16.2752 9.801 16.1312 9.96982C15.9872 10.1386 15.8077 10.2737 15.6056 10.3653C15.4035 10.4569 15.1836 10.5029 14.9617 10.5Z" fill="#939393"/>
</svg>
