<svg width="18" height="18" viewBox="0 0 18 18" fill="none" xmlns="http://www.w3.org/2000/svg">
<path d="M2.25 15.75C2.05109 15.75 1.86032 15.671 1.71967 15.5303C1.57902 15.3897 1.5 15.1989 1.5 15V9C1.5 8.80109 1.57902 8.61032 1.71967 8.46967C1.86032 8.32902 2.05109 8.25 2.25 8.25H4.5V15.75H2.25Z" fill="#939393"/>
<path d="M14.9617 7.5H10.6335V3.75C10.6335 2.25 8.3265 2.25 8.3265 2.25C8.3265 2.25 8.3265 5.25 7.557 6C7.14 6.40725 6.50175 7.761 6 8.25V15.75H13.983C14.3392 15.7534 14.6854 15.6322 14.9616 15.4073C15.2379 15.1824 15.4268 14.868 15.4957 14.5185L16.4707 9.2685C16.5085 9.04982 16.4977 8.82551 16.439 8.61149C16.3803 8.39747 16.2752 8.199 16.1312 8.03018C15.9872 7.86137 15.8077 7.72635 15.6056 7.63471C15.4035 7.54308 15.1836 7.49709 14.9617 7.5Z" fill="#939393"/>
</svg>
